name rise44.8762peak52.3436fall86.788.mot
datacolumns 19
datarows 33
range 4.67165200000000 4.72497700000000
endheader
time	ground_force1_vx	ground_force1_vy	ground_force1_vz	ground_force1_px	ground_force1_py	ground_force1_pz	ground_force2_vx	ground_force2_vy	ground_force2_vz	ground_force2_px	ground_force2_py	ground_force2_pz	ground_torque1_x	ground_torque1_y	ground_torque1_z	ground_torque2_x	ground_torque2_y	ground_torque2_z	
4.67165200000000	44.26565500000000	808.63855599999999	58.87246600000000	0.23041100000000	0.00000000000000	0.13606800000000	0.00000000000000	0.00000000000000	0.00000000000000	0.00000000000000	0.00000000000000	0.00000000000000	0.00000000000000	14.77339800000000	0.00000000000000	0.00000000000000	0.00000000000000	0.00000000000000	
4.67331200000000	43.49326200000000	809.56917799999997	58.77064500000000	0.22937800000000	0.00000000000000	0.13608400000000	0.00000000000000	0.00000000000000	0.00000000000000	0.00000000000000	0.00000000000000	0.00000000000000	0.00000000000000	14.76706300000000	0.00000000000000	0.00000000000000	0.00000000000000	0.00000000000000	
4.67497800000000	42.72919700000000	810.32193800000005	58.66254400000000	0.22836400000000	0.00000000000000	0.13610300000000	0.00000000000000	0.00000000000000	0.00000000000000	0.00000000000000	0.00000000000000	0.00000000000000	0.00000000000000	14.75819200000000	0.00000000000000	0.00000000000000	0.00000000000000	0.00000000000000	
4.67664600000000	41.97398200000000	810.89740400000005	58.54832100000000	0.22736800000000	0.00000000000000	0.13612400000000	0.00000000000000	0.00000000000000	0.00000000000000	0.00000000000000	0.00000000000000	0.00000000000000	0.00000000000000	14.74675800000000	0.00000000000000	0.00000000000000	0.00000000000000	0.00000000000000	
4.67832700000000	41.22804800000000	811.29646500000001	58.42809400000000	0.22638900000000	0.00000000000000	0.13614800000000	0.00000000000000	0.00000000000000	0.00000000000000	0.00000000000000	0.00000000000000	0.00000000000000	0.00000000000000	14.73273000000000	0.00000000000000	0.00000000000000	0.00000000000000	0.00000000000000	
4.67998300000000	40.49174700000000	811.52033100000006	58.30194600000000	0.22542500000000	0.00000000000000	0.13617400000000	0.00000000000000	0.00000000000000	0.00000000000000	0.00000000000000	0.00000000000000	0.00000000000000	0.00000000000000	14.71606600000000	0.00000000000000	0.00000000000000	0.00000000000000	0.00000000000000	
4.68164700000000	39.76534600000000	811.57054500000004	58.16993200000000	0.22447400000000	0.00000000000000	0.13620200000000	0.00000000000000	0.00000000000000	0.00000000000000	0.00000000000000	0.00000000000000	0.00000000000000	0.00000000000000	14.69672300000000	0.00000000000000	0.00000000000000	0.00000000000000	0.00000000000000	
4.68332400000000	39.04903700000000	811.44898499999999	58.03207900000000	0.22353400000000	0.00000000000000	0.13623300000000	0.00000000000000	0.00000000000000	0.00000000000000	0.00000000000000	0.00000000000000	0.00000000000000	0.00000000000000	14.67465400000000	0.00000000000000	0.00000000000000	0.00000000000000	0.00000000000000	
4.68498100000000	38.34294300000000	811.15786200000002	57.88839400000000	0.22260500000000	0.00000000000000	0.13626700000000	0.00000000000000	0.00000000000000	0.00000000000000	0.00000000000000	0.00000000000000	0.00000000000000	0.00000000000000	14.64980900000000	0.00000000000000	0.00000000000000	0.00000000000000	0.00000000000000	
4.68664600000000	37.64711700000000	810.69972800000005	57.73886300000000	0.22168300000000	0.00000000000000	0.13630400000000	0.00000000000000	0.00000000000000	0.00000000000000	0.00000000000000	0.00000000000000	0.00000000000000	0.00000000000000	14.62214000000000	0.00000000000000	0.00000000000000	0.00000000000000	0.00000000000000	
4.68832400000000	36.96155400000000	810.07746599999996	57.58346200000000	0.22076700000000	0.00000000000000	0.13634400000000	0.00000000000000	0.00000000000000	0.00000000000000	0.00000000000000	0.00000000000000	0.00000000000000	0.00000000000000	14.59160000000000	0.00000000000000	0.00000000000000	0.00000000000000	0.00000000000000	
4.68997900000000	36.28619100000000	809.29429300000004	57.42215400000000	0.21985500000000	0.00000000000000	0.13638700000000	0.00000000000000	0.00000000000000	0.00000000000000	0.00000000000000	0.00000000000000	0.00000000000000	0.00000000000000	14.55814400000000	0.00000000000000	0.00000000000000	0.00000000000000	0.00000000000000	
4.69165200000000	35.62091300000000	808.35375299999998	57.25489900000000	0.21894600000000	0.00000000000000	0.13643200000000	0.00000000000000	0.00000000000000	0.00000000000000	0.00000000000000	0.00000000000000	0.00000000000000	0.00000000000000	14.52173100000000	0.00000000000000	0.00000000000000	0.00000000000000	0.00000000000000	
4.69332000000000	34.96556200000000	807.25970900000004	57.08165400000000	0.21803700000000	0.00000000000000	0.13648100000000	0.00000000000000	0.00000000000000	0.00000000000000	0.00000000000000	0.00000000000000	0.00000000000000	0.00000000000000	14.48232700000000	0.00000000000000	0.00000000000000	0.00000000000000	0.00000000000000	
4.69497900000000	34.31993800000000	806.01633700000002	56.90238000000000	0.21712700000000	0.00000000000000	0.13653300000000	0.00000000000000	0.00000000000000	0.00000000000000	0.00000000000000	0.00000000000000	0.00000000000000	0.00000000000000	14.43990400000000	0.00000000000000	0.00000000000000	0.00000000000000	0.00000000000000	
4.69664500000000	33.68380900000000	804.62811699999997	56.71704300000000	0.21621300000000	0.00000000000000	0.13658800000000	0.00000000000000	0.00000000000000	0.00000000000000	0.00000000000000	0.00000000000000	0.00000000000000	0.00000000000000	14.39444100000000	0.00000000000000	0.00000000000000	0.00000000000000	0.00000000000000	
4.69832100000000	33.05691200000000	803.09981900000002	56.52562100000000	0.21529500000000	0.00000000000000	0.13664700000000	0.00000000000000	0.00000000000000	0.00000000000000	0.00000000000000	0.00000000000000	0.00000000000000	0.00000000000000	14.34592700000000	0.00000000000000	0.00000000000000	0.00000000000000	0.00000000000000	
4.69997600000000	32.43896200000000	801.43649000000005	56.32810300000000	0.21437000000000	0.00000000000000	0.13670800000000	0.00000000000000	0.00000000000000	0.00000000000000	0.00000000000000	0.00000000000000	0.00000000000000	0.00000000000000	14.29436000000000	0.00000000000000	0.00000000000000	0.00000000000000	0.00000000000000	
4.70164600000000	31.82965500000000	799.64344700000004	56.12449600000000	0.21343700000000	0.00000000000000	0.13677300000000	0.00000000000000	0.00000000000000	0.00000000000000	0.00000000000000	0.00000000000000	0.00000000000000	0.00000000000000	14.23974900000000	0.00000000000000	0.00000000000000	0.00000000000000	0.00000000000000	
4.70332000000000	31.22867400000000	797.72625300000004	55.91482600000000	0.21249400000000	0.00000000000000	0.13684200000000	0.00000000000000	0.00000000000000	0.00000000000000	0.00000000000000	0.00000000000000	0.00000000000000	0.00000000000000	14.18211200000000	0.00000000000000	0.00000000000000	0.00000000000000	0.00000000000000	
4.70497800000000	30.63569400000000	795.69070699999997	55.69914200000000	0.21154000000000	0.00000000000000	0.13691400000000	0.00000000000000	0.00000000000000	0.00000000000000	0.00000000000000	0.00000000000000	0.00000000000000	0.00000000000000	14.12148100000000	0.00000000000000	0.00000000000000	0.00000000000000	0.00000000000000	
4.70665200000000	30.05038700000000	793.54282400000000	55.47751600000000	0.21057300000000	0.00000000000000	0.13698900000000	0.00000000000000	0.00000000000000	0.00000000000000	0.00000000000000	0.00000000000000	0.00000000000000	0.00000000000000	14.05790100000000	0.00000000000000	0.00000000000000	0.00000000000000	0.00000000000000	
4.70832700000000	29.47242700000000	791.28881999999999	55.25004900000000	0.20959300000000	0.00000000000000	0.13706800000000	0.00000000000000	0.00000000000000	0.00000000000000	0.00000000000000	0.00000000000000	0.00000000000000	0.00000000000000	13.99142600000000	0.00000000000000	0.00000000000000	0.00000000000000	0.00000000000000	
4.70998100000000	28.90149100000000	788.93508999999995	55.01686800000000	0.20859800000000	0.00000000000000	0.13715000000000	0.00000000000000	0.00000000000000	0.00000000000000	0.00000000000000	0.00000000000000	0.00000000000000	0.00000000000000	13.92212700000000	0.00000000000000	0.00000000000000	0.00000000000000	0.00000000000000	
4.71164500000000	28.33726800000000	786.48818900000003	54.77813100000000	0.20758600000000	0.00000000000000	0.13723500000000	0.00000000000000	0.00000000000000	0.00000000000000	0.00000000000000	0.00000000000000	0.00000000000000	0.00000000000000	13.85008400000000	0.00000000000000	0.00000000000000	0.00000000000000	0.00000000000000	
4.71332000000000	27.77945800000000	783.95481400000006	54.53402800000000	0.20655800000000	0.00000000000000	0.13732500000000	0.00000000000000	0.00000000000000	0.00000000000000	0.00000000000000	0.00000000000000	0.00000000000000	0.00000000000000	13.77539300000000	0.00000000000000	0.00000000000000	0.00000000000000	0.00000000000000	
4.71498300000000	27.22777700000000	781.34178099999997	54.28477800000000	0.20551200000000	0.00000000000000	0.13741700000000	0.00000000000000	0.00000000000000	0.00000000000000	0.00000000000000	0.00000000000000	0.00000000000000	0.00000000000000	13.69816300000000	0.00000000000000	0.00000000000000	0.00000000000000	0.00000000000000	
4.71665000000000	26.68196200000000	778.65600600000005	54.03063400000000	0.20444700000000	0.00000000000000	0.13751300000000	0.00000000000000	0.00000000000000	0.00000000000000	0.00000000000000	0.00000000000000	0.00000000000000	0.00000000000000	13.61851300000000	0.00000000000000	0.00000000000000	0.00000000000000	0.00000000000000	
4.71832700000000	26.14176800000000	775.90448400000002	53.77188100000000	0.20336400000000	0.00000000000000	0.13761200000000	0.00000000000000	0.00000000000000	0.00000000000000	0.00000000000000	0.00000000000000	0.00000000000000	0.00000000000000	13.53657800000000	0.00000000000000	0.00000000000000	0.00000000000000	0.00000000000000	
4.71999000000000	25.60697600000000	773.09426599999995	53.50883700000000	0.20226200000000	0.00000000000000	0.13771500000000	0.00000000000000	0.00000000000000	0.00000000000000	0.00000000000000	0.00000000000000	0.00000000000000	0.00000000000000	13.45250200000000	0.00000000000000	0.00000000000000	0.00000000000000	0.00000000000000	
4.72165000000000	25.07739100000000	770.23244000000000	53.24185000000000	0.20114100000000	0.00000000000000	0.13782100000000	0.00000000000000	0.00000000000000	0.00000000000000	0.00000000000000	0.00000000000000	0.00000000000000	0.00000000000000	13.36644300000000	0.00000000000000	0.00000000000000	0.00000000000000	0.00000000000000	
4.72332600000000	24.55284700000000	767.32610599999998	52.97130000000000	0.20000100000000	0.00000000000000	0.13793000000000	0.00000000000000	0.00000000000000	0.00000000000000	0.00000000000000	0.00000000000000	0.00000000000000	0.00000000000000	13.27856800000000	0.00000000000000	0.00000000000000	0.00000000000000	0.00000000000000	
4.72497700000000	24.03320200000000	764.38235999999995	52.69759600000000	0.19884100000000	0.00000000000000	0.13804300000000	0.00000000000000	0.00000000000000	0.00000000000000	0.00000000000000	0.00000000000000	0.00000000000000	0.00000000000000	13.18905700000000	0.00000000000000	0.00000000000000	0.00000000000000	0.00000000000000	
